<svg xmlns="http://www.w3.org/2000/svg" viewBox="0 0 921 348" width="921" height="348" preserveAspectRatio="xMidYMid meet" style="width: 100%; height: 100%; transform: translate3d(0px, 0px, 0px); content-visibility: visible;"><defs><clipPath id="__lottie_element_22"><rect width="921" height="348" x="0" y="0"></rect></clipPath></defs><g clip-path="url(#__lottie_element_22)"><g transform="matrix(1,0,0,1,594.3779907226562,174.14700317382812)" opacity="1" style="display: block;"><g opacity="1" transform="matrix(1,0,0,1,0,0)"><path fill="rgb(20,19,22)" fill-opacity="1" d=" M235.33399963378906,-4.051000118255615 C235.33399963378906,-4.051000118255615 279.9750061035156,-4.051000118255615 279.9750061035156,-4.051000118255615 C279.9750061035156,-4.051000118255615 279.9750061035156,-5.427000045776367 279.9750061035156,-5.427000045776367 C279.9750061035156,-21.173999786376953 272.02398681640625,-29.582000732421875 258.4179992675781,-29.582000732421875 C244.1999969482422,-29.582000732421875 235.63999938964844,-19.79800033569336 235.33399963378906,-4.051000118255615z M258.5710144042969,-38.14400100708008 C279.0570068359375,-38.14400100708008 290.8290100097656,-25.913000106811523 290.8290100097656,-2.674999952316284 C290.8290100097656,-2.674999952316284 290.8290100097656,4.663000106811523 290.8290100097656,4.663000106811523 C290.8290100097656,4.663000106811523 235.33399963378906,4.663000106811523 235.33399963378906,4.663000106811523 C235.48699951171875,21.937999725341797 244.96499633789062,32.48699951171875 259.79400634765625,32.48699951171875 C270.4960021972656,32.48699951171875 278.1400146484375,26.524999618530273 281.3500061035156,16.128999710083008 C281.3500061035156,16.128999710083008 290.3699951171875,19.79800033569336 290.3699951171875,19.79800033569336 C285.6310119628906,34.01599884033203 274.47100830078125,41.965999603271484 259.0299987792969,41.965999603271484 C237.3209991455078,41.965999603271484 224.6320037841797,28.054000854492188 224.6320037841797,2.369999885559082 C224.6320037841797,-22.70199966430664 237.4739990234375,-38.14400100708008 258.5710144042969,-38.14400100708008z M189.66799926757812,45.02299880981445 C182.78799438476562,63.82699966430664 174.3800048828125,70.70700073242188 161.6909942626953,70.70700073242188 C159.3979949951172,70.70700073242188 157.2570037841797,70.55400085449219 154.96400451660156,70.09500122070312 C154.96400451660156,70.09500122070312 154.96400451660156,60.617000579833984 154.96400451660156,60.617000579833984 C156.7989959716797,60.92300033569336 158.63299560546875,61.07600021362305 160.31500244140625,61.07600021362305 C170.2519989013672,61.07600021362305 174.99200439453125,55.571998596191406 178.66099548339844,45.17599868774414 C178.66099548339844,45.17599868774414 180.6479949951172,39.51900100708008 180.6479949951172,39.51900100708008 C180.6479949951172,39.51900100708008 150.07200622558594,-36.308998107910156 150.07200622558594,-36.308998107910156 C150.07200622558594,-36.308998107910156 161.9969940185547,-36.308998107910156 161.9969940185547,-36.308998107910156 C161.9969940185547,-36.308998107910156 182.48300170898438,18.268999099731445 182.48300170898438,18.268999099731445 C184.01199340820312,22.243999481201172 185.08200073242188,25.760000228881836 185.8459930419922,28.665000915527344 C185.8459930419922,28.665000915527344 186.15199279785156,28.665000915527344 186.15199279785156,28.665000915527344 C186.91600036621094,25.760000228881836 187.98599243164062,22.243999481201172 189.36199951171875,18.115999221801758 C189.36199951171875,18.115999221801758 208.01400756835938,-36.308998107910156 208.01400756835938,-36.308998107910156 C208.01400756835938,-36.308998107910156 219.47900390625,-36.308998107910156 219.47900390625,-36.308998107910156 C219.47900390625,-36.308998107910156 189.66799926757812,45.02299880981445 189.66799926757812,45.02299880981445z M88.56900024414062,-4.051000118255615 C88.56900024414062,-4.051000118255615 133.2100067138672,-4.051000118255615 133.2100067138672,-4.051000118255615 C133.2100067138672,-4.051000118255615 133.2100067138672,-5.427000045776367 133.2100067138672,-5.427000045776367 C133.2100067138672,-21.173999786376953 125.26000213623047,-29.582000732421875 111.65399932861328,-29.582000732421875 C97.43599700927734,-29.582000732421875 88.875,-19.79800033569336 88.56900024414062,-4.051000118255615z M111.80699920654297,-38.14400100708008 C132.29299926757812,-38.14400100708008 144.06399536132812,-25.913000106811523 144.06399536132812,-2.674999952316284 C144.06399536132812,-2.674999952316284 144.06399536132812,4.663000106811523 144.06399536132812,4.663000106811523 C144.06399536132812,4.663000106811523 88.56900024414062,4.663000106811523 88.56900024414062,4.663000106811523 C88.72200012207031,21.937999725341797 98.20099639892578,32.48699951171875 113.02999877929688,32.48699951171875 C123.73200225830078,32.48699951171875 131.37600708007812,26.524999618530273 134.58599853515625,16.128999710083008 C134.58599853515625,16.128999710083008 143.6060028076172,19.79800033569336 143.6060028076172,19.79800033569336 C138.86700439453125,34.01599884033203 127.70600128173828,41.965999603271484 112.26499938964844,41.965999603271484 C90.55599975585938,41.965999603271484 77.86699676513672,28.054000854492188 77.86699676513672,2.369999885559082 C77.86699676513672,-22.70199966430664 90.70999908447266,-38.14400100708008 111.80699920654297,-38.14400100708008z M7.436999797821045,1.9110000133514404 C7.436999797821045,21.78499984741211 16.45800018310547,32.63999938964844 31.28700065612793,32.63999938964844 C45.9630012512207,32.63999938964844 54.983001708984375,21.78499984741211 54.983001708984375,1.9110000133514404 C54.983001708984375,-17.96299934387207 45.9630012512207,-28.81800079345703 31.28700065612793,-28.81800079345703 C16.45800018310547,-28.81800079345703 7.436999797821045,-17.96299934387207 7.436999797821045,1.9110000133514404z M66.2959976196289,1.9110000133514404 C66.2959976196289,26.829999923706055 52.38399887084961,41.965999603271484 31.28700065612793,41.965999603271484 C10.036999702453613,41.965999603271484 -3.875999927520752,26.829999923706055 -3.875999927520752,1.9110000133514404 C-3.875999927520752,-23.007999420166016 10.036999702453613,-38.14400100708008 31.28700065612793,-38.14400100708008 C52.38399887084961,-38.14400100708008 66.2959976196289,-23.007999420166016 66.2959976196289,1.9110000133514404z M-22.648000717163086,40.13100051879883 C-22.648000717163086,40.13100051879883 -33.19599914550781,40.13100051879883 -33.19599914550781,40.13100051879883 C-33.19599914550781,40.13100051879883 -33.19599914550781,-36.308998107910156 -33.19599914550781,-36.308998107910156 C-33.19599914550781,-36.308998107910156 -22.648000717163086,-36.308998107910156 -22.648000717163086,-36.308998107910156 C-22.648000717163086,-36.308998107910156 -22.648000717163086,40.13100051879883 -22.648000717163086,40.13100051879883z M-21.882999420166016,-50.06800079345703 C-21.882999420166016,-50.06800079345703 -33.96099853515625,-50.06800079345703 -33.96099853515625,-50.06800079345703 C-33.96099853515625,-50.06800079345703 -33.96099853515625,-66.88500213623047 -33.96099853515625,-66.88500213623047 C-33.96099853515625,-66.88500213623047 -21.882999420166016,-66.88500213623047 -21.882999420166016,-66.88500213623047 C-21.882999420166016,-66.88500213623047 -21.882999420166016,-50.06800079345703 -21.882999420166016,-50.06800079345703z M-115.88800048828125,1.9110000133514404 C-115.88800048828125,20.868000030517578 -107.3270034790039,32.48699951171875 -93.10900115966797,32.48699951171875 C-79.04399871826172,32.48699951171875 -70.33000183105469,20.562999725341797 -70.33000183105469,3.5929999351501465 C-70.33000183105469,3.5929999351501465 -70.33000183105469,0.38199999928474426 -70.33000183105469,0.38199999928474426 C-70.33000183105469,-17.04599952697754 -78.73799896240234,-28.665000915527344 -92.95600128173828,-28.665000915527344 C-107.3270034790039,-28.665000915527344 -115.88800048828125,-17.198999404907227 -115.88800048828125,1.9110000133514404z M-69.87100219726562,23.926000595092773 C-74.30500030517578,35.23899841308594 -83.47799682617188,41.965999603271484 -95.70800018310547,41.965999603271484 C-114.66500091552734,41.965999603271484 -127.20099639892578,25.760000228881836 -127.20099639892578,1.9110000133514404 C-127.20099639892578,-21.632999420166016 -113.9010009765625,-38.14400100708008 -94.48500061035156,-38.14400100708008 C-83.47799682617188,-38.14400100708008 -75.06800079345703,-33.0989990234375 -70.48200225830078,-22.39699935913086 C-70.48200225830078,-22.39699935913086 -70.48200225830078,-70.70700073242188 -70.48200225830078,-70.70700073242188 C-70.48200225830078,-70.70700073242188 -59.78099822998047,-70.70700073242188 -59.78099822998047,-70.70700073242188 C-59.78099822998047,-70.70700073242188 -59.78099822998047,40.13100051879883 -59.78099822998047,40.13100051879883 C-59.78099822998047,40.13100051879883 -69.87100219726562,40.13100051879883 -69.87100219726562,40.13100051879883 C-69.87100219726562,40.13100051879883 -69.87100219726562,23.926000595092773 -69.87100219726562,23.926000595092773z M-156.12899780273438,24.384000778198242 C-159.64500427246094,34.4739990234375 -169.2760009765625,41.965999603271484 -180.89500427246094,41.965999603271484 C-200.0050048828125,41.965999603271484 -207.03799438476562,30.347000122070312 -207.03799438476562,12.154000282287598 C-207.03799438476562,12.154000282287598 -207.03799438476562,-36.308998107910156 -207.03799438476562,-36.308998107910156 C-207.03799438476562,-36.308998107910156 -196.48899841308594,-36.308998107910156 -196.48899841308594,-36.308998107910156 C-196.48899841308594,-36.308998107910156 -196.48899841308594,11.083999633789062 -196.48899841308594,11.083999633789062 C-196.48899841308594,26.06599998474121 -189.45700073242188,32.792999267578125 -179.06100463867188,32.792999267578125 C-165.1490020751953,32.792999267578125 -156.74000549316406,20.868000030517578 -156.74000549316406,5.427000045776367 C-156.74000549316406,5.427000045776367 -156.74000549316406,-36.308998107910156 -156.74000549316406,-36.308998107910156 C-156.74000549316406,-36.308998107910156 -146.03900146484375,-36.308998107910156 -146.03900146484375,-36.308998107910156 C-146.03900146484375,-36.308998107910156 -146.03900146484375,40.13100051879883 -146.03900146484375,40.13100051879883 C-146.03900146484375,40.13100051879883 -156.12899780273438,40.13100051879883 -156.12899780273438,40.13100051879883 C-156.12899780273438,40.13100051879883 -156.12899780273438,24.384000778198242 -156.12899780273438,24.384000778198242z M-279.66900634765625,19.645000457763672 C-279.66900634765625,27.900999069213867 -273.24798583984375,33.0989990234375 -263.0050048828125,33.0989990234375 C-248.78700256347656,33.0989990234375 -239.30799865722656,22.39699935913086 -239.30799865722656,6.802999973297119 C-239.30799865722656,6.802999973297119 -239.30799865722656,1.9110000133514404 -239.30799865722656,1.9110000133514404 C-239.30799865722656,1.9110000133514404 -261.0169982910156,4.968999862670898 -261.0169982910156,4.968999862670898 C-274.0119934082031,6.803999900817871 -279.66900634765625,11.237000465393066 -279.66900634765625,19.645000457763672z M-238.85000610351562,24.843000411987305 C-242.5189971923828,35.54499816894531 -252.30299377441406,41.965999603271484 -265.45098876953125,41.965999603271484 C-280.739013671875,41.965999603271484 -290.8290100097656,33.0989990234375 -290.8290100097656,19.951000213623047 C-290.8290100097656,12.61299991607666 -287.6180114746094,6.650000095367432 -281.50299072265625,2.828000068664551 C-275.9989929199219,-0.38199999928474426 -268.5090026855469,-2.5220000743865967 -256.4309997558594,-4.051000118255615 C-256.4309997558594,-4.051000118255615 -239.46099853515625,-6.039000034332275 -239.46099853515625,-6.039000034332275 C-239.46099853515625,-6.039000034332275 -239.46099853515625,-7.26200008392334 -239.46099853515625,-7.26200008392334 C-239.46099853515625,-23.009000778198242 -244.96499633789062,-29.277000427246094 -257.9599914550781,-29.277000427246094 C-269.4259948730469,-29.277000427246094 -276.4580078125,-23.31399917602539 -277.07000732421875,-12.460000038146973 C-277.07000732421875,-12.460000038146973 -288.5360107421875,-12.460000038146973 -288.5360107421875,-12.460000038146973 C-287.6189880371094,-28.207000732421875 -275.6940002441406,-38.14400100708008 -258.1130065917969,-38.14400100708008 C-237.6269989013672,-38.14400100708008 -228.75999450683594,-28.665000915527344 -228.75999450683594,-6.497000217437744 C-228.75999450683594,-6.497000217437744 -228.75999450683594,13.376999855041504 -228.75999450683594,13.376999855041504 C-228.75999450683594,25.302000045776367 -227.99600219726562,33.862998962402344 -226.31399536132812,40.13100051879883 C-226.31399536132812,40.13100051879883 -237.4739990234375,40.13100051879883 -237.4739990234375,40.13100051879883 C-238.23800659179688,36.00299835205078 -238.69700622558594,30.5 -238.85000610351562,24.843000411987305z"></path></g></g><g transform="matrix(1,0,0,1,135,174)" opacity="1" style="display: block;"><g opacity="1" transform="matrix(1,0,0,1,0,0)"><path fill="rgb(112,24,224)" fill-opacity="1" d=" M-53.89899826049805,-0.8460000157356262 C-53.89899826049805,-24.14299964904785 -62.02799987792969,-45.54100036621094 -75.6050033569336,-62.35900115966797 C-89.59500122070312,-45.41600036621094 -98,-23.69099998474121 -98,-0.0020000000949949026 C-98,23.295000076293945 -89.87100219726562,44.694000244140625 -76.29399871826172,61.512001037597656 C-62.30400085449219,44.569000244140625 -53.89899826049805,22.843000411987305 -53.89899826049805,-0.8460000157356262z M98,0 C98,-23.868000030517578 89.46700286865234,-45.74300003051758 75.28600311279297,-62.74100112915039 C60.79999923706055,-45.65800094604492 52.0620002746582,-23.54599952697754 52.0620002746582,0.6069999933242798 C52.0620002746582,24.475000381469727 60.595001220703125,46.349998474121094 74.7760009765625,63.347999572753906 C89.26200103759766,46.26499938964844 98,24.152999877929688 98,0z M-0.0010000000474974513,98 C23.91900062561035,98 45.8380012512207,89.43000030517578 62.85200119018555,75.19300079345703 C45.74599838256836,60.62099838256836 23.56800079345703,51.82500076293945 -0.6650000214576721,51.82500076293945 C-24.584999084472656,51.82500076293945 -46.50400161743164,60.39500045776367 -63.518001556396484,74.63200378417969 C-46.4119987487793,89.2040023803711 -24.233999252319336,98 -0.0010000000474974513,98z M-0.0989999994635582,-53.720001220703125 C23.468000411987305,-53.720001220703125 45.09199905395508,-62.03900146484375 61.99700164794922,-75.9000015258789 C45.106998443603516,-89.71299743652344 23.520999908447266,-98 0,-98 C-23.566999435424805,-98 -45.19200134277344,-89.68099975585938 -62.09700012207031,-75.81999969482422 C-45.207000732421875,-62.00699996948242 -23.6200008392334,-53.720001220703125 -0.0989999994635582,-53.720001220703125z"></path></g></g></g></svg>
