<svg width="100" height="100" viewBox="0 0 100 100" fill="none" xmlns="http://www.w3.org/2000/svg">
<path fill-rule="evenodd" clip-rule="evenodd" d="M81.6318 11.2754C73.0068 18.3476 61.974 22.592 49.9499 22.592C37.9492 22.592 26.9359 18.3641 18.3184 11.3166C26.9434 4.24436 37.9761 0 50.0003 0C62.001 0 73.0143 4.22787 81.6318 11.2754Z" fill="#7119E1"/>
<path fill-rule="evenodd" clip-rule="evenodd" d="M82.0684 88.3636C73.3878 95.6275 62.2047 100 50.0005 100C37.6368 100 26.3213 95.5125 17.5938 88.0776C26.2744 80.8137 37.4574 76.4412 49.6617 76.4412C62.0253 76.4412 73.3409 80.9286 82.0684 88.3636Z" fill="#7119E1"/>
<path fill-rule="evenodd" clip-rule="evenodd" d="M88.4116 17.9896C95.6468 26.6621 100 37.8227 100 50.0001C100 62.323 95.5421 73.6048 88.1509 82.3206C80.9157 73.648 76.5625 62.4874 76.5625 50.31C76.5625 37.9871 81.0204 26.7054 88.4116 17.9896Z" fill="#7119E1"/>
<path fill-rule="evenodd" clip-rule="evenodd" d="M11.4261 18.1847C18.353 26.7652 22.5006 37.6828 22.5006 49.569C22.5006 61.6551 18.2124 72.7396 11.0745 81.384C4.1476 72.8035 0 61.886 0 49.9997C0 37.9137 4.2882 26.8292 11.4261 18.1847Z" fill="#7119E1"/>
</svg>
